<?xml version="1.0" standalone="no"?>
<!DOCTYPE svg PUBLIC "-//W3C//DTD SVG 20010904//EN"
 "http://www.w3.org/TR/2001/REC-SVG-20010904/DTD/svg10.dtd">
<svg version="1.0" xmlns="http://www.w3.org/2000/svg"
 width="600.000000pt" height="600.000000pt" viewBox="0 0 600.000000 600.000000"
 preserveAspectRatio="xMidYMid meet">

<g transform="translate(0.000000,600.000000) scale(0.100000,-0.100000)"
fill="#fff" stroke="none">
<path d="M872 5706 c9 -7 90 -34 180 -60 358 -105 484 -204 482 -381 -1 -51
-9 -76 -52 -166 -117 -243 -177 -596 -152 -889 14 -171 41 -312 87 -451 40
-124 172 -392 241 -488 221 -312 523 -553 851 -680 171 -67 202 -11 -272 -492
-227 -230 -412 -424 -412 -431 0 -17 207 -24 245 -8 14 6 204 189 421 406 227
227 404 397 418 401 14 3 93 0 175 -7 171 -14 339 -4 506 31 136 29 180 34
180 20 0 -14 -99 -120 -493 -525 -169 -174 -305 -321 -302 -326 9 -15 236 -12
261 3 44 25 1369 1395 1463 1512 270 336 411 743 411 1184 0 352 -111 718
-307 1016 -58 87 -183 249 -188 243 -1 -2 -17 -45 -34 -97 -130 -383 -420
-678 -860 -876 -157 -70 -437 -155 -461 -140 -5 3 13 48 40 99 68 126 91 220
91 366 0 213 -68 377 -221 530 -132 132 -244 187 -422 210 -51 6 -424 10 -988
10 -744 -1 -902 -3 -888 -14z m1953 -223 c209 -79 365 -294 365 -503 0 -135
-67 -297 -160 -390 -70 -70 -195 -135 -290 -151 -36 -7 -71 -16 -77 -21 -19
-15 -26 -71 -18 -143 l7 -65 56 0 c89 0 388 37 525 64 318 65 625 181 859 327
108 67 176 120 289 228 54 50 102 91 108 91 21 0 11 -66 -34 -212 -78 -255
-160 -427 -330 -688 -123 -191 -380 -448 -580 -580 -27 -18 -79 -54 -115 -81
-104 -75 -255 -145 -462 -214 -254 -84 -325 -101 -495 -119 -198 -22 -260 -21
-303 5 -99 61 -278 259 -392 435 -147 228 -247 586 -248 886 0 230 56 458 196
788 33 79 37 196 9 270 -9 25 -21 58 -25 73 l-9 28 532 -3 c524 -3 533 -3 592
-25z m1989 -613 c39 -116 73 -282 87 -432 24 -263 -38 -573 -168 -832 -232
-464 -661 -798 -1164 -906 -130 -28 -443 -39 -581 -20 -186 25 -406 96 -381
121 6 6 73 24 149 40 241 51 381 101 617 221 294 149 490 303 749 586 137 151
164 188 303 414 126 206 257 544 300 773 29 154 46 160 89 35z"/>
<path d="M2514 5145 c-88 -44 -130 -132 -106 -221 26 -96 92 -147 192 -148
221 -2 271 311 61 382 -52 18 -92 14 -147 -13z"/>
<path d="M3292 1290 c-215 -57 -361 -211 -398 -423 -51 -287 122 -545 412
-613 100 -23 266 -15 356 18 137 51 234 137 293 259 19 40 32 76 29 81 -3 4
-49 8 -103 8 l-99 0 -37 -46 c-80 -97 -164 -135 -301 -135 -107 0 -181 27
-250 93 -75 71 -99 130 -99 243 1 102 19 154 76 219 147 168 468 151 581 -31
l20 -33 109 0 c60 0 109 3 109 6 0 4 -16 40 -36 81 -108 226 -394 343 -662
273z"/>
<path d="M850 1195 l0 -95 180 0 180 0 0 -420 0 -421 103 3 102 3 2 415 2 415
181 3 181 2 -3 93 -3 92 -462 3 -463 2 0 -95z"/>
<path d="M1900 775 l0 -515 425 0 425 0 0 95 0 95 -320 0 -320 0 0 115 0 115
310 0 310 0 0 95 0 95 -310 0 -310 0 0 115 0 115 320 0 320 0 0 95 0 95 -425
0 -425 0 0 -515z"/>
<path d="M4137 1283 c-4 -3 -7 -235 -7 -515 l0 -508 105 0 105 0 0 210 0 210
280 0 280 0 0 -210 0 -210 105 0 105 0 0 515 0 516 -102 -3 -103 -3 -3 -207
-2 -208 -280 0 -280 0 0 210 0 210 -98 0 c-54 0 -102 -3 -105 -7z"/>
</g>
</svg>
